<?xml version="1.0" encoding="iso-8859-1"?>
<!-- Generator: Adobe Illustrator 19.0.0, SVG Export Plug-In . SVG Version: 6.00 Build 0)  -->
<svg version="1.1" id="Capa_1" xmlns="http://www.w3.org/2000/svg" xmlns:xlink="http://www.w3.org/1999/xlink" x="0px" y="0px"
	 viewBox="0 0 512 512" style="enable-background:new 0 0 512 512;" xml:space="preserve">
<path style="fill:#DCFD92;" d="M7.5,229.824c0,68.766,136.274,200.403,248.5,200.403S504.5,298.59,504.5,229.824H7.5z"/>
<path style="fill:#BEE86E;" d="M7.5,229.824c0,56.574,92.24,155.64,187.439,189.011c-23.238-31.756-59.496-85.745-75.213-132.898
	c-5.909-17.728-1.619-36.908,8.518-56.112H7.5V229.824z"/>
<path style="fill:#4B3F4E;" d="M7.5,229.823c0,36.34,168.339,136.274,248.5,136.274s248.5-99.934,248.5-136.274L7.5,229.823
	L7.5,229.823z"/>
<path style="fill:#BEE86E;" d="M256,285.936c123.582,0,248.5-40.081,248.5-56.113s-28.056-53.441-28.056-53.441
	c-19.372-28.056-7.348-60.121-30.242-79.041c-22.443-18.547-64.154-21.23-85.992-3.792C324.417,122.13,294.745,133.63,256,133.63
	s-68.417-11.499-104.21-40.081c-21.837-17.438-63.549-14.755-85.992,3.792c-22.894,18.92-10.87,50.985-30.242,79.041
	c0,0-28.056,37.408-28.056,53.441S132.418,285.936,256,285.936z"/>
<path style="fill:#AFD755;" d="M151.79,93.549c-21.837-17.438-63.549-14.755-85.991,3.792c-22.894,18.92-10.87,50.985-30.242,79.041
	c0,0-28.056,37.408-28.056,53.441c0,9.719,45.94,28.265,109.625,41.372c-1.855-48.501,58.692-104.367,103.499-141.551
	C197.368,124.201,175.95,112.841,151.79,93.549z"/>
<circle style="fill:#FFDC64;" cx="87.66" cy="157.68" r="64.13"/>
<path style="fill:#FFC850;" d="M111.71,197.759c-35.417,0-64.129-28.712-64.129-64.129c0-11.53,3.084-22.321,8.409-31.671
	c-19.369,11.035-32.458,31.831-32.458,55.719c0,35.417,28.712,64.129,64.129,64.129c23.888,0,44.684-13.088,55.72-32.458
	C134.031,194.675,123.239,197.759,111.71,197.759z"/>
<circle style="fill:#FFDC64;" cx="424.34" cy="157.68" r="64.13"/>
<path style="fill:#FFC850;" d="M448.387,197.759c-35.417,0-64.129-28.712-64.129-64.129c0-11.53,3.084-22.321,8.409-31.671
	c-19.369,11.035-32.458,31.831-32.458,55.719c0,35.417,28.712,64.129,64.129,64.129c23.888,0,44.684-13.088,55.72-32.458
	C470.708,194.675,459.916,197.759,448.387,197.759z"/>
<path style="fill:#E6646E;" d="M349.337,341.732c-22.046-14.471-55.652-23.731-93.337-23.731s-71.291,9.26-93.337,23.731
	c34.507,14.57,68.243,24.366,93.337,24.366S314.83,356.301,349.337,341.732z"/>
<path style="fill:#FF8087;" d="M226.125,362.53c10.81,2.271,20.912,3.567,29.876,3.567c25.094,0,58.83-9.796,93.337-24.366
	c-15.681-10.293-37.275-17.869-61.962-21.433C263.994,325.756,242.901,340.815,226.125,362.53z"/>
<path style="fill:#4B3F4E;" d="M71.629,181.727L71.629,181.727c-8.854,0-16.032-7.178-16.032-16.032v-24.048
	c0-8.854,7.178-16.032,16.032-16.032l0,0c8.854,0,16.032,7.178,16.032,16.032v24.048C87.661,174.549,80.483,181.727,71.629,181.727z
	"/>
<path style="fill:#5D5360;" d="M71.629,157.678L71.629,157.678c-8.854,0-16.032-7.178-16.032-16.032l0,0
	c0-8.854,7.178-16.032,16.032-16.032l0,0c8.854,0,16.032,7.178,16.032,16.032l0,0C87.661,150.5,80.483,157.678,71.629,157.678z"/>
<path style="fill:#4B3F4E;" d="M440.371,181.727L440.371,181.727c-8.854,0-16.032-7.178-16.032-16.032v-24.048
	c0-8.854,7.178-16.032,16.032-16.032l0,0c8.854,0,16.032,7.178,16.032,16.032v24.048
	C456.403,174.549,449.225,181.727,440.371,181.727z"/>
<path style="fill:#5D5360;" d="M440.371,157.678L440.371,157.678c-8.854,0-16.032-7.178-16.032-16.032l0,0
	c0-8.854,7.178-16.032,16.032-16.032l0,0c8.854,0,16.032,7.178,16.032,16.032l0,0C456.403,150.5,449.225,157.678,440.371,157.678z"
	/>
<path d="M512,229.824L512,229.824L512,229.824c0-15.496-15.438-36.785-21.547-44.602c3.548-8.484,5.515-17.788,5.515-27.544
	c0-30.416-19.065-56.448-45.866-66.818c-11.896-9.603-28.824-15.6-46.693-16.476c-18.683-0.92-36.144,3.932-47.879,13.304
	c-34.644,27.664-62.55,38.442-99.53,38.442s-64.887-10.778-99.53-38.442c-11.736-9.372-29.179-14.22-47.878-13.304
	C90.723,75.261,73.795,81.256,61.9,90.86c-26.801,10.369-45.868,36.401-45.868,66.818c0,9.756,1.967,19.06,5.516,27.544
	C15.438,193.041,0,214.328,0,229.823v0.001l0,0c0,35.549,33.272,87.231,84.766,131.667c25.658,22.142,53.969,40.773,81.872,53.881
	c31.576,14.833,61.642,22.354,89.362,22.354s57.786-7.521,89.362-22.354c27.903-13.108,56.214-31.74,81.872-53.881
	c51.169-44.156,84.331-95.46,84.746-130.986c0.012-0.228,0.02-0.454,0.02-0.677C512,229.826,512,229.825,512,229.824z
	 M480.968,157.678c0,31.225-25.403,56.629-56.629,56.629s-56.629-25.404-56.629-56.629c0-31.226,25.403-56.629,56.629-56.629
	S480.968,126.453,480.968,157.678z M29.576,199.517c13.021,18.026,34.199,29.79,58.085,29.79c39.496,0,71.629-32.133,71.629-71.629
	c0-8.373-1.433-16.577-4.26-24.385c-1.409-3.894-5.705-5.911-9.604-4.5c-3.895,1.41-5.909,5.71-4.499,9.605
	c2.231,6.166,3.363,12.652,3.363,19.279c0,31.225-25.403,56.629-56.629,56.629s-56.629-25.404-56.629-56.629
	c0-31.226,25.403-56.629,56.629-56.629c13.805,0,27.102,5.022,37.441,14.143c3.106,2.74,7.846,2.443,10.586-0.664
	c2.739-3.106,2.442-7.846-0.664-10.585c-7.553-6.662-16.355-11.583-25.804-14.564c14.333-0.712,28.524,2.553,37.89,10.031
	c37.109,29.633,68.657,41.72,108.89,41.72s71.78-12.087,108.89-41.72c9.361-7.475,23.543-10.741,37.87-10.032
	c-28.982,9.178-50.049,36.322-50.049,68.301c0,39.496,32.133,71.629,71.629,71.629c23.886,0,45.064-11.764,58.085-29.79
	c6.722,9.392,13.889,21.605,14.529,29.242c-4.928,5.782-36.927,20.793-97.455,33.817c-4.049,0.871-6.625,4.86-5.754,8.91
	c0.757,3.518,3.866,5.924,7.324,5.924c0.523,0,1.054-0.055,1.586-0.169c28.826-6.203,55.523-13.878,75.237-21.626
	c-1.77,1.622-3.694,3.325-5.805,5.119c-16.451,13.983-39.703,29.727-65.474,44.33c-19.288,10.93-38.508,20.478-56.855,28.377
	C324.484,318.639,291.373,310.5,256,310.5c-35.353,0-68.482,8.142-93.756,22.94c-18.348-7.899-37.569-17.448-56.857-28.378
	c-25.771-14.603-49.022-30.347-65.474-44.33c-2.109-1.793-4.032-3.494-5.8-5.115c13.542,5.329,30.414,10.64,49.423,15.537
	c54.969,14.16,117.829,22.281,172.464,22.281c35.694,0,74.931-3.41,113.467-9.86c4.085-0.684,6.843-4.55,6.159-8.635
	c-0.685-4.086-4.549-6.846-8.636-6.159c-37.731,6.316-76.111,9.654-110.99,9.654c-69.818,0-131.66-12.651-162.309-20.192
	c-47.057-11.579-74.097-24.123-78.646-29.483C15.686,221.124,22.854,208.909,29.576,199.517z M331.549,340.848
	c-29.755,11.366-56.242,17.749-75.549,17.749c-19.306,0-45.79-6.382-75.542-17.747c21.371-9.84,48.081-15.35,75.542-15.35
	C283.479,325.5,310.179,331.006,331.549,340.848z M417.435,350.134c-24.639,21.262-51.766,39.126-78.45,51.661
	c-29.565,13.889-57.485,20.931-82.984,20.931s-53.419-7.042-82.984-20.931c-26.685-12.535-53.812-30.399-78.45-51.661
	c-30.25-26.104-54.174-55.145-67.604-80.78c1.051,0.927,2.123,1.86,3.237,2.807c17.149,14.577,41.226,30.896,67.794,45.951
	c27.692,15.692,56.315,29.124,82.776,38.842c30.066,11.043,55.378,16.643,75.231,16.643s45.165-5.599,75.231-16.643
	c26.461-9.718,55.084-23.15,82.776-38.842c26.568-15.055,50.645-31.375,67.794-45.951c1.114-0.947,2.187-1.88,3.237-2.806
	C471.608,294.99,447.685,324.03,417.435,350.134z"/>
<path d="M223.936,237.323c1.919,0,3.839-0.732,5.303-2.196l8.017-8.017c2.93-2.929,2.93-7.677,0.001-10.606s-7.678-2.929-10.606,0
	l-8.017,8.016c-2.93,2.929-2.93,7.677-0.001,10.606C220.097,236.591,222.016,237.323,223.936,237.323z"/>
<path d="M282.761,235.126c1.465,1.465,3.384,2.197,5.304,2.197c1.919,0,3.839-0.732,5.303-2.196c2.93-2.929,2.93-7.678,0.001-10.607
	l-8.016-8.016c-2.929-2.929-7.678-2.929-10.606,0c-2.93,2.929-2.93,7.677-0.001,10.606L282.761,235.126z"/>
<path d="M87.661,142.162c-4.143,0-7.5,3.358-7.5,7.5v16.032c0,4.705-3.827,8.532-8.532,8.532s-8.532-3.828-8.532-8.532v-24.049
	c0-4.705,3.827-8.532,8.532-8.532c4.143,0,7.5-3.358,7.5-7.5s-3.357-7.5-7.5-7.5c-12.976,0-23.532,10.557-23.532,23.532v24.049
	c0,12.976,10.557,23.532,23.532,23.532s23.532-10.557,23.532-23.532v-16.032C95.161,145.52,91.804,142.162,87.661,142.162z"/>
<path d="M416.839,149.662v16.032c0,12.976,10.557,23.532,23.532,23.532s23.532-10.557,23.532-23.532v-24.049
	c0-12.976-10.557-23.532-23.532-23.532c-4.143,0-7.5,3.358-7.5,7.5s3.357,7.5,7.5,7.5c4.705,0,8.532,3.828,8.532,8.532v24.049
	c0,4.705-3.827,8.532-8.532,8.532s-8.532-3.828-8.532-8.532v-16.032c0-4.142-3.357-7.5-7.5-7.5S416.839,145.52,416.839,149.662z"/>
<g>
</g>
<g>
</g>
<g>
</g>
<g>
</g>
<g>
</g>
<g>
</g>
<g>
</g>
<g>
</g>
<g>
</g>
<g>
</g>
<g>
</g>
<g>
</g>
<g>
</g>
<g>
</g>
<g>
</g>
</svg>
