<?xml version="1.0" encoding="iso-8859-1"?>
<!-- Generator: Adobe Illustrator 19.0.0, SVG Export Plug-In . SVG Version: 6.00 Build 0)  -->
<svg version="1.1" id="Capa_1" xmlns="http://www.w3.org/2000/svg" xmlns:xlink="http://www.w3.org/1999/xlink" x="0px" y="0px"
	 viewBox="0 0 512.001 512.001" style="enable-background:new 0 0 512.001 512.001;" xml:space="preserve">
<path style="fill:#FFDC64;" d="M320.524,23.532l-32.065,1.327v40.129c0,4.252-1.689,8.33-4.696,11.337
	c-6.261,6.261-16.412,6.261-22.673,0c-3.007-3.007-4.696-7.085-4.696-11.337V24.859l-32.065-1.327l-19.734,111.366l135.805,0.86
	L320.524,23.532z"/>
<g>
	<path style="fill:#EBAF4B;" d="M344.572,151.79l8.016,16.032C436.647,148.424,452.902,87.3,456.045,64.387
		c0.553-4.034-3.477-7.12-7.183-5.433C428.798,68.088,375.448,96.492,344.572,151.79z"/>
	<path style="fill:#EBAF4B;" d="M200.282,151.79l-8.016,16.032C108.207,148.424,91.953,87.3,88.81,64.387
		c-0.553-4.034,3.477-7.12,7.183-5.433C116.057,68.088,169.407,96.492,200.282,151.79z"/>
</g>
<polygon style="fill:#E69641;" points="360.605,207.903 272.427,416.323 272.427,504.5 400.685,504.5 "/>
<polygon style="fill:#D27D38;" points="344.572,272.032 333.473,272.032 272.427,416.323 272.427,504.5 321.325,504.5 "/>
<path style="fill:#E69641;" d="M224.947,360.525c3.694,31.636,23.545,55.798,47.48,55.798c24.015,0,43.918-24.322,47.516-56.113
	L224.947,360.525z"/>
<path style="fill:#AFD755;" d="M139.457,390.113c-7.671,11.506-10.897,24.349-9.931,35.763c0.307,3.626,3.953,6.057,7.418,4.945
	c10.907-3.498,21.521-11.416,29.192-22.922s10.897-24.349,9.931-35.763c-0.307-3.626-3.953-6.057-7.418-4.945
	C157.742,370.689,147.128,378.606,139.457,390.113z"/>
<g>
	<path style="fill:#BEE86E;" d="M76.438,351.352c-10.015,5.047-16.95,13.716-20.011,23.533c-0.943,3.024,0.735,6.19,3.73,7.223
		c9.685,3.339,20.734,2.907,30.711-2.122c10.015-5.047,16.95-13.716,20.01-23.533c0.943-3.024-0.735-6.19-3.73-7.223
		C97.464,345.892,86.415,346.324,76.438,351.352z"/>
	<path style="fill:#BEE86E;" d="M119.256,322.773c3.247,13.442,10.491,24.527,19.53,31.562c2.872,2.235,7.131,1.207,8.666-2.093
		c4.831-10.385,6.218-23.554,2.972-36.997c-3.247-13.442-10.491-24.527-19.53-31.562c-2.872-2.235-7.131-1.207-8.666,2.093
		C117.396,296.161,116.009,309.33,119.256,322.773z"/>
</g>
<path style="fill:#FFC850;" d="M272.427,103.694c-55.225,0-85.01,35.8-94.148,72.145l5.971,40.081c0,0,21.543,94.363,30.06,127.508
	c9.431,36.701,44.757,40.831,58.118,40.831c13.36,0,48.686-4.129,58.116-40.831c8.517-33.145,30.06-127.508,30.06-127.508
	l5.971-40.081C357.438,139.494,327.654,103.694,272.427,103.694z"/>
<path style="fill:#EBAF4B;" d="M247.686,343.427c-3.626-33.145-12.798-127.508-12.798-127.508l-1.385-21.837
	c-1.032-16.276,0.07-32.711,4.378-48.44c6.485-23.683,17.753-41.948,34.546-41.948l0,0c-55.225,0-85.01,35.8-94.148,72.145
	l5.971,40.081c0,0,21.543,94.363,30.06,127.508c9.431,36.701,44.756,40.831,58.117,40.831
	C266.739,384.258,251.7,380.128,247.686,343.427z"/>
<path style="fill:#4B3F4E;" d="M360.605,223.936L360.605,223.936c-13.282,0-24.048-10.767-24.048-24.048v-8.016
	c0-13.282,10.767-24.048,24.048-24.048l0,0c13.282,0,24.048,10.767,24.048,24.048v8.016
	C384.653,213.169,373.886,223.936,360.605,223.936z"/>
<path style="fill:#5D5360;" d="M360.605,167.823v28.056c0,6.641,5.383,12.024,12.024,12.024s12.024-5.383,12.024-12.024v-4.008
	C384.653,178.589,373.886,167.823,360.605,167.823z"/>
<circle style="fill:#FFFFFF;" cx="360.609" cy="183.85" r="8.02"/>
<path style="fill:#4B3F4E;" d="M184.25,223.936L184.25,223.936c-13.282,0-24.048-10.767-24.048-24.048v-8.016
	c0-13.282,10.767-24.048,24.048-24.048l0,0c13.282,0,24.048,10.767,24.048,24.048v8.016
	C208.298,213.169,197.531,223.936,184.25,223.936z"/>
<path style="fill:#5D5360;" d="M184.25,167.823v28.056c0,6.641,5.383,12.024,12.024,12.024s12.024-5.383,12.024-12.024v-4.008
	C208.298,178.589,197.531,167.823,184.25,167.823z"/>
<circle style="fill:#FFFFFF;" cx="184.249" cy="183.85" r="8.02"/>
<g>
	<path style="fill:#D27D38;" d="M240.363,39.565L240.363,39.565c-8.854,0-16.032-7.178-16.032-16.032l0,0
		c0-8.854,7.178-16.032,16.032-16.032l0,0c8.854,0,16.032,7.178,16.032,16.032l0,0C256.395,32.387,249.217,39.565,240.363,39.565z"
		/>
	<path style="fill:#D27D38;" d="M304.492,39.565L304.492,39.565c-8.854,0-16.032-7.178-16.032-16.032l0,0
		c0-8.854,7.178-16.032,16.032-16.032l0,0c8.854,0,16.032,7.178,16.032,16.032l0,0C320.524,32.387,313.346,39.565,304.492,39.565z"
		/>
</g>
<path d="M461.403,49.677c-1.827-1.422-4.208-1.919-6.451-1.35c-2.628,0.667-62.235,16.452-102.145,80.101
	c-1.713-1.775-3.508-3.494-5.384-5.153L330.34,20.771C328.333,8.735,318.021,0,305.818,0c-13.707,0-24.859,11.152-24.859,24.859
	v40.129c0,2.279-0.888,4.422-2.5,6.034c-1.611,1.611-3.753,2.498-6.032,2.498c-2.279,0-4.422-0.887-6.033-2.499
	c-1.611-1.611-2.499-3.754-2.499-6.033V24.859C263.895,11.152,252.743,0,239.036,0c-12.203,0-22.515,8.736-24.521,20.771
	l-17.086,102.518c-1.874,1.661-3.659,3.387-5.369,5.162C152.151,64.784,92.53,48.995,89.902,48.328
	c-2.246-0.569-4.625-0.072-6.451,1.35c-1.827,1.421-2.895,3.605-2.895,5.92c0,0.979,0.135,24.269,11.843,49.662
	c10.251,22.234,31.448,49.988,74.7,60.153c-8.657,5.631-14.398,15.384-14.398,26.459v8.016c0,15.344,11.012,28.157,25.546,30.969
	c4.758,19.05,21.567,86.296,28.799,114.438c1.39,5.408,3.373,10.412,5.899,14.986c-12.182-0.725-33.081-2.634-57.5-7.636
	c4.705-11.697,5.579-25.456,2.27-39.159c-4.256-17.62-14.689-32.193-28.625-39.982c-3.418-1.911-7.733-0.869-9.903,2.392
	c-8.845,13.291-11.478,31.02-7.222,48.64c1.651,6.838,4.244,13.209,7.6,18.911c-17.323-5.414-35.108-12.518-51.915-21.855
	c-3.621-2.011-8.187-0.707-10.198,2.914c-2.012,3.621-0.707,8.188,2.914,10.199c5.383,2.99,10.844,5.757,16.343,8.328
	c-1.231,0.494-2.452,1.023-3.646,1.625c-13.343,6.724-22.785,19.473-25.256,34.104c-0.547,3.235,1.074,6.451,4,7.937
	c6.612,3.357,13.88,5.035,21.164,5.035c7.292-0.001,14.599-1.683,21.273-5.047c11.426-5.759,19.976-15.941,23.753-27.934
	c11.578,3.53,22.884,6.327,33.547,8.542c-6.991,4.736-13.263,11.064-18.327,18.661c-10.055,15.083-13.68,32.636-9.945,48.157
	c0.822,3.414,3.875,5.746,7.285,5.746c0.393,0,0.792-0.031,1.191-0.095c15.765-2.522,30.573-12.619,40.628-27.702
	c8.202-12.303,12.121-26.25,11.262-39.397c16.192,2.073,28.811,2.746,35.503,2.962c6.192,25.517,24.059,44.088,45.787,47.595V504.5
	c0,4.143,3.358,7.5,7.5,7.5s7.5-3.357,7.5-7.5v-81.28c24.031-3.867,43.286-26.114,47.33-55.83
	c4.832-6.318,8.401-13.725,10.552-22.096c4.812-18.726,13.863-54.762,20.785-82.396l34.666,242.663
	c0.535,3.741,3.743,6.44,7.416,6.44c0.353,0,0.71-0.025,1.07-0.076c4.101-0.586,6.95-4.385,6.364-8.485l-39.024-273.171
	c13.288-3.715,23.067-15.923,23.067-30.381v-8.016c0-4.143-3.358-7.5-7.5-7.5s-7.5,3.357-7.5,7.5v8.016
	c0,9.125-7.423,16.549-16.548,16.549s-16.548-7.424-16.548-16.549v-8.016c0-9.125,7.423-16.549,16.548-16.549
	c0.051,0,0.102-0.001,0.152-0.002l6.062-0.123c2.277-0.046,4.409-1.124,5.796-2.931c1.321-1.72,1.818-3.923,1.394-6.04
	c45.777-9.408,67.904-38.103,78.446-60.968c11.708-25.394,11.843-48.684,11.843-49.662C464.298,53.282,463.23,51.098,461.403,49.677
	z M128.1,291.103c7.088,6.24,12.512,15.461,15.034,25.903c2.521,10.441,1.904,21.122-1.554,29.909
	c-7.089-6.24-12.511-15.461-15.033-25.903C124.024,310.569,124.641,299.89,128.1,291.103z M87.492,373.289
	c-7.292,3.675-15.676,4.411-23.347,2.211c2.795-7.476,8.376-13.775,15.667-17.45l0,0c7.291-3.675,15.676-4.412,23.347-2.211
	C100.365,363.313,94.784,369.614,87.492,373.289z M159.896,403.738c-5.959,8.938-14.223,15.732-23.024,19.154
	c-0.227-9.44,2.866-19.682,8.825-28.62s14.222-15.732,23.024-19.154C168.948,384.56,165.855,394.8,159.896,403.738z M106.245,99.462
	c-5.857-12.538-8.506-24.686-9.703-33.007c18.542,7.432,58.072,27.871,85.504,74.408c-2.371,3.558-4.443,7.256-6.207,11.065
	C143.038,145.75,119.629,128.111,106.245,99.462z M272.427,408.822c-14.149,0-27.053-9.849-34.352-24.75
	c0.192,0.095,0.375,0.199,0.569,0.292c13.371,6.433,26.906,7.394,33.785,7.394c6.878,0,20.413-0.961,33.784-7.394
	c0.197-0.095,0.384-0.201,0.58-0.298C299.502,398.978,286.604,408.822,272.427,408.822z M329.056,191.871v8.016
	c0,14.177,9.4,26.197,22.293,30.161c-5.526,22.121-21.168,84.664-28.068,111.514c-8.392,32.658-41.045,35.196-50.853,35.196
	s-42.462-2.538-50.854-35.196c-6.899-26.849-22.542-89.394-28.068-111.514c12.893-3.965,22.292-15.984,22.292-30.161v-8.016
	c0-4.143-3.358-7.5-7.5-7.5s-7.5,3.357-7.5,7.5v8.016c0,9.125-7.423,16.549-16.548,16.549s-16.548-7.424-16.548-16.549v-8.016
	c0-9.125,7.423-16.549,16.548-16.549c4.142,0,7.5-3.357,7.5-7.5c0-2.738-1.471-5.125-3.661-6.435
	c11.736-29.508,45.756-50.194,84.339-50.194c5.029,0,10.075,0.349,14.997,1.036c4.11,0.567,7.893-2.287,8.465-6.39
	c0.573-4.103-2.288-7.893-6.39-8.466c-5.606-0.783-11.351-1.181-17.072-1.181c-20.587,0-40.764,5.227-57.748,14.833l14.631-87.788
	c0.795-4.773,4.886-8.238,9.725-8.238c5.437,0,9.859,4.423,9.859,9.859v40.129c0,6.286,2.448,12.195,6.893,16.641
	c4.444,4.444,10.354,6.892,16.64,6.892s12.195-2.447,16.639-6.892c4.445-4.444,6.894-10.354,6.894-16.641V24.859
	c0-5.437,4.423-9.859,9.859-9.859c4.839,0,8.93,3.465,9.726,8.238l14.629,87.777c-2.075-1.176-4.202-2.297-6.388-3.351
	c-3.733-1.799-8.214-0.233-10.013,3.499c-1.799,3.73-0.232,8.214,3.499,10.013c18.535,8.936,32.404,22.999,39.193,39.417
	C341.019,162.627,329.056,175.879,329.056,191.871z M438.834,98.979c-13.338,28.929-36.816,46.728-69.801,52.946
	c-1.766-3.823-3.845-7.524-6.214-11.08c27.345-46.357,66.949-66.882,85.507-74.364C447.152,74.665,444.558,86.562,438.834,98.979z"
	/>
<path d="M245.666,314.826c-2.928-2.929-7.677-2.93-10.606-0.001s-2.929,7.678,0,10.606l8.017,8.017
	c1.464,1.465,3.384,2.197,5.303,2.197s3.839-0.732,5.303-2.196c2.929-2.929,2.929-7.678,0-10.606L245.666,314.826z"/>
<path d="M299.189,314.826l-8.016,8.017c-2.929,2.929-2.929,7.678,0,10.606c1.464,1.464,3.384,2.196,5.303,2.196
	s3.839-0.732,5.303-2.197l8.017-8.017c2.929-2.929,2.928-7.678,0-10.606C306.866,311.897,302.117,311.896,299.189,314.826z"/>
<g>
</g>
<g>
</g>
<g>
</g>
<g>
</g>
<g>
</g>
<g>
</g>
<g>
</g>
<g>
</g>
<g>
</g>
<g>
</g>
<g>
</g>
<g>
</g>
<g>
</g>
<g>
</g>
<g>
</g>
</svg>
